<svg id="Layer_1" data-name="Layer 1" xmlns="http://www.w3.org/2000/svg" xmlns:xlink="http://www.w3.org/1999/xlink" viewBox="0 0 130 130"><defs><style>.cls-1{fill:#a2b53a;}.cls-2{fill:url(#linear-gradient);}.cls-3{fill:#87a4d5;}.cls-4{fill:#231f20;opacity:0.2;isolation:isolate;}.cls-5{fill:#fff;}.cls-6{fill:#45404e;}.cls-7{fill:#50283e;}.cls-8{fill:#f36f5d;}.cls-9{fill:#f8a683;}.cls-10{fill:#f26423;}.cls-11{fill:#c85428;}.cls-12{fill:#87d3e0;}.cls-13{fill:#fab599;}.cls-14{fill:#383938;}.cls-15{fill:#57556e;}.cls-16{fill:#cdd9e5;}.cls-17{fill:#aabed4;}</style><linearGradient id="linear-gradient" x1="64.72" y1="11.41" x2="64.72" y2="191.52" gradientUnits="userSpaceOnUse"><stop offset="0.01" stop-color="#80d0db"/><stop offset="1" stop-color="#502d8f"/></linearGradient></defs><path id="Path_3023" data-name="Path 3023" class="cls-1" d="M64.19,12.48A49.36,49.36,0,1,1,15.37,62.37,49.36,49.36,0,0,1,64.19,12.48Z"/><path class="cls-2" d="M23,91.4,9.08,114.66H120.37L110.25,90.84C70.16,91,62.71,91.21,23,91.4Z"/><path class="cls-3" d="M24.06,92,11.91,113.37l104.36-.09c-2.13-6-4.67-13.2-7.74-21.91l-6.19.11,5.75.06,5.46,20.76c-43.81,0-55.1.08-98.81.12l9.75-20.16c2.38,0,3.56,0,3.54-.05S26.68,92.09,24.06,92Z"/><ellipse id="Ellipse_7" data-name="Ellipse 7" class="cls-4" cx="64.58" cy="107.03" rx="46.63" ry="2.33"/><path class="cls-5" d="M41.09,51.84c2.46,10.53,5.53,20.91,8,31.44L58,82.05q-4.39-15.51-8.78-31C46.72,51.24,43.6,51.61,41.09,51.84Z"/><path class="cls-6" d="M43.57,61.17c2.55,10.3,2.61,11.26,5.16,21.56l1.11-1.51c-2.39-10.07-2.31-10.81-4.7-20.88C44.66,60.57,44.05,61,43.57,61.17Z"/><rect class="cls-6" x="49.12" y="80.37" width="21.14" height="3.47"/><polygon class="cls-6" points="52.71 80.37 48.37 80.37 41.7 108.25 42.4 108.25 52.71 80.37"/><path class="cls-7" d="M59.49,27.92l2.37-1.83.85,1.43A6.52,6.52,0,0,1,64,31c.09,2.35-1.41,3.32-.85,4.63.72,1.65,3.11.93,4.51,2.88A5.51,5.51,0,0,1,68.14,43c-.77,2.56-3.44,4.4-6.7,4.57a16.58,16.58,0,0,1-4.54-12A15.59,15.59,0,0,1,59.49,27.92Z"/><path class="cls-8" d="M52.11,77.52c-.29-3.49-.59-7-.88-10.48a7.43,7.43,0,0,1,10.9-.74,7.82,7.82,0,0,1-.55,11.26A7.6,7.6,0,0,1,52.11,77.52Z"/><path class="cls-9" d="M50.5,42l6.53.23-.48-1.94c0-2.52-.09-5-.13-7.58l-5.25-.44A19.35,19.35,0,0,1,50.5,42Z"/><path class="cls-6" d="M70,97.2c-.07-1.28-.14-2.55-.2-3.83l4.33.54-.36,2.38a6.2,6.2,0,0,0,.75,4c1.7,3,3.08,3.7,4.12,3.71.52,0,1.55-.16,2.08.47a1.65,1.65,0,0,1,.17,1.71c-.7,1.31-3.7,1-5.44.48a9.08,9.08,0,0,1-3.91-2.38c-.2.34-.39.68-.59,1l-2.83-.9a5.43,5.43,0,0,1,.12-2.25,6.22,6.22,0,0,1,.84-1.85A7.2,7.2,0,0,0,70,97.2Z"/><path class="cls-10" d="M58.18,73.73l.23.17,2.93,2,.22.15,1.75,1.21,9.27,6.38a4.94,4.94,0,0,0,6.8-1.18h0a5.18,5.18,0,0,0-.8-7l-6.83-5.87L65.5,64.29a5.81,5.81,0,0,0-8.52,1,6.14,6.14,0,0,0-.13,7l0,0a2.48,2.48,0,0,0,.19.26A5.66,5.66,0,0,0,58.18,73.73Z"/><path class="cls-10" d="M69.76,98.39a7.06,7.06,0,0,0,4.62.84q2.39-11.31,4.78-22.62c-2.35-4.11-6.07-5.56-8.08-4.44-1.35.75-1.76,2.59-1.89,3.47Z"/><path class="cls-6" d="M83.19,97.42,80.43,94,85,92.84l1,2A4.41,4.41,0,0,0,88.12,97c3.6,1.6,5.2,1.47,6,1a2.35,2.35,0,0,1,1.63-.55,1.68,1.68,0,0,1,1.44,1c.26,1.15-2.14,2.86-4.19,3.59a9,9,0,0,1-4.54.36c0,.39.07.78.1,1.17l-2.83.92a5.5,5.5,0,0,1-1.17-1.9,7,7,0,0,1-.36-2A7.06,7.06,0,0,0,83.19,97.42Z"/><path class="cls-11" d="M57.59,82.1h.29L61.41,82h.26l2.12,0L75,81.76a5,5,0,0,0,4.88-5h0a5,5,0,0,0-4.56-5.21l-8.89-.79-8.13-.72a6,6,0,0,0-6.4,5.84,6,6,0,0,0,3.85,5.82h0l.31.11A5.64,5.64,0,0,0,57.59,82.1Z"/><path class="cls-11" d="M83.33,98.45a7.94,7.94,0,0,0,2.11-.7,8.2,8.2,0,0,0,2-1.41l-8-21.45a4.94,4.94,0,0,0-6.8-2.39h0a5.16,5.16,0,0,0-2.09,7Z"/><path class="cls-9" d="M63.48,40.5l-4.55-.1a5.73,5.73,0,0,0-4.76-.11l-7.84,3.87q4.58,12.17,9.16,24.32l7.41-1.36Z"/><path class="cls-6" d="M56.69,41.84l-5.6-2.17L50.46,42l-4.65,2q2.92,11.61,5.87,23.2c0,2.11.07,4.22.1,6.34a42.83,42.83,0,0,0,10.66-.27c1.4-.22,2.71-.49,3.94-.8l-2.16-3.55,3.54,2.59c.26-.63.53-1.26.8-1.9a44.71,44.71,0,0,1-4.39-11.1,45.59,45.59,0,0,1-.75-18.07l-5.91-.17Z"/><path class="cls-12" d="M51.88,76.48c-3-13.41-4.43-19.55-5.07-22.3-.11-.47-.18-.72-.26-1.14q-.86-4.42-1.72-8.85h0L46,43.56l1.44-.42a77.75,77.75,0,0,1,4.71,27.22C52.17,72.49,52.06,74.53,51.88,76.48Z"/><path class="cls-12" d="M60.19,40.23a94.19,94.19,0,0,0,4.9,21.52c.4,1.13.82,2.24,1.25,3.32l2.38,2c-.94-3.23-1.82-6.75-2.58-10.53A127.16,127.16,0,0,1,64,40.6c-.55-.11-1.14-.2-1.79-.27S60.8,40.23,60.19,40.23Z"/><path class="cls-12" d="M49.41,51.46l-3.6,13.77a2.81,2.81,0,0,1-1.58,2.15h0c-1.21.34-2.77-1.47-3-1.7-2.34-2.68-1-9.86.35-16.6a6.74,6.74,0,0,1,5.38-5.73Q48.17,47.41,49.41,51.46Z"/><path class="cls-12" d="M66.2,43l3.3,12.53a2.82,2.82,0,0,1-1.18,2.4l0,0c-.43.2-1.37.34-3.41-.92q-2.27-7.86-4.52-15.72l.24-1.06a21.76,21.76,0,0,1,2.5.08h0A3.53,3.53,0,0,1,66.2,43Z"/><path class="cls-12" d="M67.15,54.39l-.37,0a1.75,1.75,0,0,0-.45.07,2.6,2.6,0,0,0-1.08.74l0,0a4.2,4.2,0,0,0-.34,2.48L70,64.12c.45-.06,2.33-.12,2.79-.19l2.79-.37-6.67-9.5C68.05,54.23,67.41,54.35,67.15,54.39Z"/><path class="cls-13" d="M56.43,40.21h0a4.82,4.82,0,0,1-4.12-5.37l.55-4.58a4.73,4.73,0,0,1,5.25-4.21h0a4.8,4.8,0,0,1,4.12,5.37L61.69,36A4.75,4.75,0,0,1,56.43,40.21Z"/><path class="cls-5" d="M59.46,36.88a1.55,1.55,0,0,1-.87,1.31,1.42,1.42,0,0,1-1.11,0,1.64,1.64,0,0,1-.83-1.74Z"/><path class="cls-13" d="M79.4,63.28a2.77,2.77,0,0,0-5.51,0Z"/><path class="cls-13" d="M28.18,56.57l5.92,4.62c.35-1,.7-2.09,1-3.13l-6.69-3.33-4.92,2.05a2.33,2.33,0,1,0,4.65-.21Z"/><path class="cls-12" d="M44.06,62.1c.08.06,1.81,1.23,1.73,2.74a3.07,3.07,0,0,1-.4,1.27s0,0,0,0a3.58,3.58,0,0,1-.94,1,2.32,2.32,0,0,1-1.24.2,5.71,5.71,0,0,1-2.67-1c-1.35-.9-6.89-4.29-11.38-7.48L31.7,55.7,44,62.08Z"/><polygon class="cls-6" points="38.06 67.11 33.72 67.11 23.66 108.25 24.36 108.25 38.06 67.11"/><polygon class="cls-6" points="89.81 67.11 94.15 67.11 104.21 108.25 103.51 108.25 89.81 67.11"/><rect class="cls-6" x="36.32" y="67.11" width="55.73" height="2.16" transform="translate(128.38 136.38) rotate(180)"/><rect class="cls-5" x="29.86" y="64.12" width="68.15" height="2.99" transform="translate(127.87 131.23) rotate(180)"/><path class="cls-6" d="M83.16,64.13H70.47a.41.41,0,0,1-.41-.42h0a.41.41,0,0,1,.41-.42H83.16a.42.42,0,0,1,.41.42h0A.42.42,0,0,1,83.16,64.13Z"/><path class="cls-14" d="M89.32,62.33h0a2,2,0,0,1-.07.55.88.88,0,0,1,0,.15,1.83,1.83,0,0,1-.3.55,1.31,1.31,0,0,1-1,.52H70.42A1.45,1.45,0,0,1,69.11,63a.88.88,0,0,1,0-.15,2,2,0,0,1-.07-.55H89.32Z"/><path class="cls-15" d="M89.32,62.33a2,2,0,0,1-.07.56.88.88,0,0,1,0,.15H69.11a.88.88,0,0,1,0-.15,2,2,0,0,1-.07-.56Z"/><path class="cls-16" d="M94.65,64.11H78.55a.74.74,0,0,1-.6-.94l2.82-15.46a.88.88,0,0,1,.78-1H97.37a.88.88,0,0,1,.77,1L95.26,63.52A.68.68,0,0,1,94.65,64.11Z"/><ellipse class="cls-17" cx="89.15" cy="55.2" rx="2.42" ry="1.11" transform="translate(19.44 133.53) rotate(-80.09)"/><path class="cls-7" d="M61.71,28.32c-1.25,1.76-3.75,1.82-4.63,1.82A10.9,10.9,0,0,1,55.4,30c-.18.27-.37.56-.55.88a10.79,10.79,0,0,0-.86,2l-.06,2.67c0,.16.07.43.13.75.56,2.92,1.09,3.34,1,4.33-.16,1.7-1.68,1.84-2,3.4-.2,1,.06,2.49,2.44,4.81a8.4,8.4,0,0,1-5.29-2.14c-2.26-2.15-2.39-5.13-2.55-8.83-.14-3.23-.3-6.74,1.95-9.84a9.16,9.16,0,0,1,4.32-3.26c3.43-1.2,7.85-.18,8.32,1.7A2.42,2.42,0,0,1,61.71,28.32Z"/><path class="cls-7" d="M61.63,28.4l.09.16a1.65,1.65,0,0,0,.56-.37,1.91,1.91,0,0,0,.41-.7l-.15-.37c-.11-.26-.21-.51-.32-.76a2.1,2.1,0,0,1-.17,1.53A1.9,1.9,0,0,1,61.63,28.4Z"/><path class="cls-13" d="M53.34,36.07h0a1,1,0,0,1-1.1-.93l-.17-1.69a1,1,0,0,1,.9-1.12h0a1,1,0,0,1,1.11.92l.16,1.69A1,1,0,0,1,53.34,36.07Z"/></svg>